<svg xmlns="http://www.w3.org/2000/svg" width="154.499" height="96.247" viewBox="0 0 154.499 96.247"><path d="M99.721-165.869l-8.147-24.664h6.85a4.983,4.983,0,0,0,4.984-4.984,4.983,4.983,0,0,0-4.984-4.984H84.679a4.986,4.986,0,0,0-4.732,6.547l4.884,14.786-3.533,4.52H38.754l-5.437-9.033h1.254a4.983,4.983,0,0,0,4.984-4.984,4.984,4.984,0,0,0-4.984-4.984H19a4.983,4.983,0,0,0-4.984,4.984A4.983,4.983,0,0,0,19-183.68h2.687l26.248,43.607H42.439c-3.854-24.034-34-35.282-52.351-16.927a30.73,30.73,0,0,0,0,43.651c17.9,17.9,48.253,7.824,52.325-16.756H56.7a4.985,4.985,0,0,0,3.927-1.914L88.59-167.79l1.661,5.028a31.023,31.023,0,0,0-16.744,27.517A31.027,31.027,0,0,0,104.5-104.253a31.028,31.028,0,0,0,30.992-30.992,31.025,31.025,0,0,0-35.769-30.624ZM73.508-164.68,57.263-143.9,44.753-164.68ZM11.914-114.226A20.973,20.973,0,0,1-9.036-135.175a20.973,20.973,0,0,1,20.949-20.949,20.983,20.983,0,0,1,20.366,16.051H11.812a4.983,4.983,0,0,0-4.984,4.984,4.984,4.984,0,0,0,4.984,4.984H32.24a20.984,20.984,0,0,1-20.326,15.88Zm92.585.005a21.049,21.049,0,0,1-21.025-21.025,21.028,21.028,0,0,1,9.964-17.87l6.4,19.387a4.985,4.985,0,0,0,4.731,3.422,4.988,4.988,0,0,0,4.733-6.548L102.914-156.2a21.036,21.036,0,0,1,22.609,20.959A21.049,21.049,0,0,1,104.5-114.22Z" transform="translate(19.009 200.5)" opacity="0.19"/></svg>