<svg xmlns="http://www.w3.org/2000/svg" width="59.983" height="74.919" viewBox="0 0 59.983 74.919">
  <g id="Group_9" data-name="Group 9" transform="translate(-111.071 -53)">
    <path id="Path_6" data-name="Path 6" d="M169.6,88.544a4.769,4.769,0,0,0-3.541-1.49h-1.665V76.838a23.191,23.191,0,0,0-6.873-16.814,22.784,22.784,0,0,0-32.908,0,23.191,23.191,0,0,0-6.873,16.814V87.055H116.07a4.769,4.769,0,0,0-3.541,1.49,4.98,4.98,0,0,0-1.458,3.619v30.649a4.984,4.984,0,0,0,1.458,3.619,4.772,4.772,0,0,0,3.541,1.489h49.986a4.77,4.77,0,0,0,3.541-1.489,4.987,4.987,0,0,0,1.458-3.619V92.162A4.978,4.978,0,0,0,169.6,88.544Zm-15.2-1.49H127.733V76.838a13.269,13.269,0,0,1,3.905-9.631,13.125,13.125,0,0,1,18.849,0,13.271,13.271,0,0,1,3.9,9.631Z" transform="translate(0)" fill="#4c9a2a"/>
  </g>
</svg>
