<svg xmlns="http://www.w3.org/2000/svg" width="71" height="71.267" viewBox="0 0 71 71.267">
  <g id="Group_8" data-name="Group 8" transform="translate(-412.96 81)">
    <g id="Group_7" data-name="Group 7" transform="translate(412.96 -81)">
      <path id="Path_4" data-name="Path 4" d="M481.561-24.84l-11.73-11.73a32.359,32.359,0,0,0,3.555-14.218A30.187,30.187,0,0,0,443.173-81,30.187,30.187,0,0,0,412.96-50.787a30.187,30.187,0,0,0,30.213,30.213,32.359,32.359,0,0,0,14.218-3.554L469.12-12.4a8.59,8.59,0,0,0,12.441,0A9.263,9.263,0,0,0,481.561-24.84Zm-38.388-2.844a23.058,23.058,0,0,1-23.1-23.1,23.058,23.058,0,0,1,23.1-23.1,23.058,23.058,0,0,1,23.1,23.1A23.058,23.058,0,0,1,443.173-27.683Z" transform="translate(-412.96 81)" fill="#4c9a2a"/>
    </g>
  </g>
</svg>
