<svg xmlns="http://www.w3.org/2000/svg" width="95.153" height="59.277" viewBox="0 0 95.153 59.277">
  <path id="Path_7" data-name="Path 7" d="M54.114-179.171,49.1-194.361h4.219a3.069,3.069,0,0,0,3.069-3.069,3.069,3.069,0,0,0-3.069-3.069H44.85a3.071,3.071,0,0,0-2.914,4.032l3.008,9.106-2.176,2.784h-26.2l-3.349-5.563h.773a3.069,3.069,0,0,0,3.069-3.069,3.069,3.069,0,0,0-3.069-3.069H4.4a3.069,3.069,0,0,0-3.069,3.069A3.069,3.069,0,0,0,4.4-190.141H6.053l16.165,26.857H18.836c-2.374-14.8-20.938-21.729-32.242-10.425a18.926,18.926,0,0,0,0,26.884,19.03,19.03,0,0,0,32.226-10.32h8.8a3.07,3.07,0,0,0,2.418-1.179l17.22-22.03,1.023,3.1a19.106,19.106,0,0,0-10.313,16.947,19.109,19.109,0,0,0,19.087,19.087,19.109,19.109,0,0,0,19.087-19.087,19.108,19.108,0,0,0-22.03-18.861Zm-16.144.732-10,12.8-7.7-12.8ZM.036-147.365a12.917,12.917,0,0,1-12.9-12.9,12.917,12.917,0,0,1,12.9-12.9,12.923,12.923,0,0,1,12.543,9.886H-.027A3.069,3.069,0,0,0-3.1-160.215a3.069,3.069,0,0,0,3.069,3.069H12.554a12.924,12.924,0,0,1-12.518,9.78Zm57.021,0a12.963,12.963,0,0,1-12.949-12.949,12.95,12.95,0,0,1,6.137-11.005l3.944,11.94a3.07,3.07,0,0,0,2.914,2.107,3.072,3.072,0,0,0,2.915-4.033l-3.937-11.918a12.955,12.955,0,0,1,13.925,12.908,12.963,12.963,0,0,1-12.949,12.949Z" transform="translate(19.009 200.5)" fill="#4c9a2a"/>
</svg>
