<svg xmlns="http://www.w3.org/2000/svg" width="28.998" height="18.065" viewBox="0 0 28.998 18.065">
  <path id="Path_7" data-name="Path 7" d="M3.276-194l-1.529-4.629H3.033a.935.935,0,0,0,.935-.935.935.935,0,0,0-.935-.935H.453a.936.936,0,0,0-.888,1.229L.481-196.5l-.663.848H-8.167l-1.021-1.7h.235a.935.935,0,0,0,.935-.935.935.935,0,0,0-.935-.935h-2.923a.935.935,0,0,0-.935.935.935.935,0,0,0,.935.935h.5l4.927,8.185H-7.475a5.8,5.8,0,0,0-9.826-3.177,5.768,5.768,0,0,0,0,8.193,5.8,5.8,0,0,0,9.821-3.145H-4.8a.936.936,0,0,0,.737-.359l5.248-6.714.312.944a5.823,5.823,0,0,0-3.143,5.165,5.824,5.824,0,0,0,5.817,5.817,5.824,5.824,0,0,0,5.817-5.817A5.823,5.823,0,0,0,3.276-194Zm-4.92.223-3.049,3.9-2.348-3.9Zm-11.561,9.47a3.937,3.937,0,0,1-3.932-3.932,3.937,3.937,0,0,1,3.932-3.932,3.938,3.938,0,0,1,3.823,3.013h-3.842a.935.935,0,0,0-.935.935.935.935,0,0,0,.935.935H-9.39a3.939,3.939,0,0,1-3.815,2.981Zm17.377,0a3.951,3.951,0,0,1-3.946-3.946,3.947,3.947,0,0,1,1.87-3.354l1.2,3.639a.936.936,0,0,0,.888.642.936.936,0,0,0,.888-1.229l-1.2-3.632a3.948,3.948,0,0,1,4.244,3.934,3.951,3.951,0,0,1-3.946,3.946Z" transform="translate(19.009 200.5)" fill="#c5c5c5"/>
</svg>
