<svg xmlns="http://www.w3.org/2000/svg" width="20.014" height="21.553" viewBox="0 0 20.014 21.553">
  <g id="Group_29" data-name="Group 29" transform="translate(-17.066)">
    <g id="Group_26" data-name="Group 26" transform="translate(17.066 13.856)">
      <g id="Group_25" data-name="Group 25" transform="translate(0)">
        <path id="Path_20" data-name="Path 20" d="M36.31,307.2a.77.77,0,0,0-.77.77v4.619a.77.77,0,0,1-.77.77h-15.4a.77.77,0,0,1-.77-.77V307.97a.77.77,0,0,0-1.54,0v4.619a2.309,2.309,0,0,0,2.309,2.309h15.4a2.309,2.309,0,0,0,2.309-2.309V307.97A.77.77,0,0,0,36.31,307.2Z" transform="translate(-17.066 -307.2)" fill="#4c9a2a"/>
      </g>
    </g>
    <g id="Group_28" data-name="Group 28" transform="translate(22.464)">
      <g id="Group_27" data-name="Group 27">
        <path id="Path_21" data-name="Path 21" d="M145.727,13.312a.77.77,0,0,0-1.069,0l-2.536,2.535V.77a.77.77,0,0,0-1.54,0V15.846l-2.535-2.535a.77.77,0,0,0-1.088,1.088l3.849,3.849a.77.77,0,0,0,1.089,0h0l3.849-3.849A.77.77,0,0,0,145.727,13.312Z" transform="translate(-136.742)" fill="#4c9a2a"/>
      </g>
    </g>
  </g>
</svg>
