<svg xmlns="http://www.w3.org/2000/svg" width="18.998" height="23.729" viewBox="0 0 18.998 23.729">
  <g id="Group_9" data-name="Group 9" transform="translate(-111.071 -53)">
    <path id="Path_6" data-name="Path 6" d="M129.607,64.258a1.51,1.51,0,0,0-1.122-.472h-.527V60.55a7.345,7.345,0,0,0-2.177-5.325,7.216,7.216,0,0,0-10.423,0,7.345,7.345,0,0,0-2.177,5.325v3.236h-.528a1.51,1.51,0,0,0-1.121.472,1.577,1.577,0,0,0-.462,1.146v9.707a1.579,1.579,0,0,0,.462,1.146,1.511,1.511,0,0,0,1.121.472h15.832a1.511,1.511,0,0,0,1.122-.472,1.579,1.579,0,0,0,.462-1.146V65.4A1.577,1.577,0,0,0,129.607,64.258Zm-4.815-.472h-8.444V60.55a4.2,4.2,0,0,1,1.237-3.05,4.157,4.157,0,0,1,5.97,0,4.2,4.2,0,0,1,1.237,3.05Z" transform="translate(0 0)" fill="#c5c5c5"/>
  </g>
</svg>
