<svg xmlns="http://www.w3.org/2000/svg" width="21.998" height="22.081" viewBox="0 0 21.998 22.081">
  <g id="Group_8" data-name="Group 8" transform="translate(-412.96 81)">
    <g id="Group_7" data-name="Group 7" transform="translate(412.96 -81)">
      <path id="Path_4" data-name="Path 4" d="M434.215-63.6l-3.634-3.634a10.026,10.026,0,0,0,1.1-4.405A9.353,9.353,0,0,0,422.321-81a9.353,9.353,0,0,0-9.361,9.361,9.353,9.353,0,0,0,9.361,9.361,10.026,10.026,0,0,0,4.405-1.1l3.634,3.634a2.661,2.661,0,0,0,3.855,0A2.87,2.87,0,0,0,434.215-63.6Zm-11.894-.881a7.144,7.144,0,0,1-7.158-7.158,7.144,7.144,0,0,1,7.158-7.158,7.144,7.144,0,0,1,7.158,7.158A7.144,7.144,0,0,1,422.321-64.481Z" transform="translate(-412.96 81)" fill="#c5c5c5"/>
    </g>
  </g>
</svg>
